<?xml version="1.0" standalone="no"?>
<!DOCTYPE svg PUBLIC "-//W3C//DTD SVG 20010904//EN"
 "http://www.w3.org/TR/2001/REC-SVG-20010904/DTD/svg10.dtd">
<svg version="1.0" xmlns="http://www.w3.org/2000/svg"
 width="2050.000000pt" height="780.000000pt" viewBox="0 0 2050.000000 780.000000"
 preserveAspectRatio="xMidYMid meet">
<metadata>
Created by potrace 1.16, written by Peter Selinger 2001-2019
</metadata>
<g transform="translate(0.000000,780.000000) scale(0.100000,-0.100000)"
fill="#000000" stroke="none">
<path d="M96 7674 c328 -435 645 -995 914 -1609 106 -243 262 -653 429 -1127
235 -667 353 -963 516 -1289 139 -277 313 -554 481 -764 111 -140 369 -398
499 -501 450 -355 961 -558 1615 -639 70 -9 248 -19 405 -22 372 -7 562 10
901 83 239 51 398 98 929 274 781 259 1065 320 1490 320 533 0 1085 -154 1525
-425 210 -130 390 -268 750 -575 348 -296 505 -417 705 -542 372 -233 724
-353 1185 -403 83 -9 381 -6 548 5 346 24 555 75 817 199 205 98 385 231 586
431 163 163 243 259 481 580 508 682 636 826 888 995 361 241 781 278 1296
114 317 -101 497 -201 783 -436 131 -107 483 -472 712 -738 144 -167 362 -419
369 -425 3 -3 62 -68 131 -145 390 -433 757 -728 1088 -876 126 -56 311 -115
335 -106 15 6 16 303 16 3877 l0 3870 -10244 0 -10244 0 94 -126z m7594 -2569
l0 -595 -75 0 -75 0 0 595 0 595 75 0 75 0 0 -595z m350 0 l0 -595 -75 0 -75
0 0 595 0 595 75 0 75 0 0 -595z m2286 573 c-3 -13 -10 -104 -16 -203 -15
-241 -10 -225 -71 -225 -31 0 -51 5 -54 13 -2 6 -9 77 -14 157 -6 80 -14 175
-17 213 l-6 67 91 0 c90 0 91 0 87 -22z m3944 -573 l0 -595 -75 0 -75 0 0 41
0 41 -35 -26 c-109 -84 -243 -104 -348 -52 -127 62 -189 195 -191 406 0 59 5
129 13 160 31 126 105 225 203 277 48 25 63 28 153 28 81 0 109 -4 147 -22 25
-11 49 -19 52 -15 3 3 6 83 6 179 l0 173 75 0 75 0 0 -595z m-862 478 l-3 -78
-82 -3 -83 -3 0 81 0 80 85 0 86 0 -3 -77z m1222 -3 l0 -80 -85 0 -85 0 0 80
0 80 85 0 85 0 0 -80z m-8810 -150 l0 -220 260 0 260 0 0 220 0 220 80 0 80 0
0 -570 0 -570 -80 0 -80 0 0 275 0 275 -260 0 -260 0 0 -275 0 -275 -80 0 -80
0 0 570 0 570 80 0 80 0 0 -220z m4188 163 l-3 -58 -72 -3 -73 -3 0 -449 0
-450 75 0 76 0 -3 -57 -3 -58 -222 -3 -223 -2 0 59 0 60 68 3 67 3 3 448 2
447 -70 0 -70 0 0 60 0 60 225 0 226 0 -3 -57z m2514 -403 c84 -253 156 -456
159 -452 4 4 76 211 159 460 l153 452 78 0 c44 0 79 -3 79 -7 -1 -5 -88 -260
-194 -568 l-193 -560 -86 -3 -85 -3 -16 43 c-20 53 -376 1091 -376 1095 0 2
38 3 84 3 l84 0 154 -460z m2468 300 l0 -120 130 0 130 0 0 -65 0 -65 -130 0
-130 0 0 -267 c0 -248 2 -270 20 -300 27 -45 98 -55 213 -27 l27 6 0 -65 c0
-36 -4 -68 -10 -72 -5 -3 -45 -11 -88 -17 -117 -17 -182 -1 -243 61 -27 26
-52 63 -59 86 -9 26 -14 134 -17 318 l-5 277 -44 0 -44 0 0 65 0 65 45 0 45 0
0 120 0 120 80 0 80 0 0 -120z m-7778 -133 c67 -33 112 -81 146 -157 22 -46
27 -74 30 -167 l5 -113 -298 0 -298 0 7 -42 c25 -160 100 -239 241 -253 75 -8
196 22 266 65 27 16 54 30 59 30 6 0 10 -34 10 -79 l0 -79 -63 -25 c-181 -73
-389 -59 -514 33 -49 36 -103 115 -127 185 -22 64 -31 214 -18 285 21 111 51
171 122 242 86 86 150 109 286 105 74 -2 100 -8 146 -30z m1530 0 c73 -36 150
-119 177 -192 79 -212 31 -497 -102 -598 -115 -87 -281 -107 -412 -48 -134 61
-215 219 -215 421 0 148 35 253 112 336 81 88 151 115 288 111 81 -2 104 -7
152 -30z m2263 7 c22 -11 56 -41 74 -67 l35 -46 57 54 c159 147 377 102 435
-91 11 -37 14 -119 14 -376 l0 -328 -75 0 -75 0 0 308 c0 172 -4 323 -10 343
-23 83 -106 110 -202 67 -29 -14 -68 -37 -85 -52 l-33 -28 0 -319 0 -319 -74
0 -74 0 -4 323 c-3 303 -4 324 -23 357 -45 75 -143 78 -248 6 l-62 -42 -3
-322 -2 -322 -75 0 -75 0 0 430 0 430 75 0 75 0 0 -40 c0 -22 3 -40 6 -40 4 0
28 16 54 35 26 19 63 42 81 50 48 22 162 16 214 -11z m2395 -424 l0 -430 -75
0 -75 0 0 430 0 430 75 0 75 0 0 -430z m1220 0 l0 -430 -75 0 -75 0 0 430 0
430 75 0 75 0 0 -430z"/>
<path d="M13835 5233 c-48 -25 -82 -62 -107 -117 -20 -45 -23 -66 -23 -186 0
-130 1 -137 30 -195 24 -48 39 -64 75 -83 76 -39 196 -17 278 52 l32 28 0 238
0 239 -55 20 c-69 26 -185 28 -230 4z"/>
<path d="M6968 5258 c-42 -11 -112 -68 -133 -108 -8 -15 -19 -46 -24 -69 l-9
-41 225 0 225 0 -7 43 c-9 59 -42 123 -73 146 -53 37 -131 49 -204 29z"/>
<path d="M8493 5249 c-18 -5 -48 -25 -67 -44 -122 -121 -105 -466 27 -553 36
-24 50 -27 122 -27 70 0 87 3 117 24 77 53 108 137 108 292 0 168 -44 263
-142 303 -41 18 -115 19 -165 5z"/>
</g>
</svg>
